<svg width="24" height="24" viewBox="0 0 48 48" fill="currentColor"><path fill-rule="evenodd" clip-rule="evenodd" d="M26.5 6a.5.5 0 01.5.5v3a.5.5 0 01-.5.5H9v30h29a1 1 0 001-1V22.5a.5.5 0 01.5-.5h3a.5.5 0 01.5.5V42a2 2 0 01-2 2H7a2 2 0 01-2-2V8a2 2 0 012-2h19.5zm3.768 14.707l3.864 1.035-4.141 15.455-3.864-1.035 4.141-15.455zM21.485 20l2.829 2.828-5.683 5.682 5.268 5.268-2.828 2.829-7.778-7.779.025-.025-.318-.318L21.485 20zM39.5 4a.5.5 0 01.5.5V9h4.5a.5.5 0 01.5.5v3a.5.5 0 01-.5.5H40v4.5a.5.5 0 01-.5.5h-3a.5.5 0 01-.5-.5V13h-4.5a.5.5 0 01-.5-.5v-3a.5.5 0 01.5-.5H36V4.5a.5.5 0 01.5-.5h3z" fill="currentColor"/></svg>