<svg width="24" height="24" viewBox="0 0 48 48" fill="currentColor"><path fill-rule="evenodd" clip-rule="evenodd" d="M24.958 3.522l19.433 10.6a1 1 0 010 1.756l-19.433 10.6a2 2 0 01-1.916 0L3.61 15.878a1 1 0 010-1.756l19.433-10.6a2 2 0 011.916 0zM5.93 22.23l-.14-.067a2 2 0 00-1.723 3.607l18.991 9.995.146.07.143.056.138.042.145.033.11.017.187.016.108.001.128-.006.172-.022.135-.028.078-.02.175-.06.103-.043c.039-.017.077-.036.115-.056l18.99-9.995a2 2 0 00-1.864-3.54L24 31.74 5.93 22.23zm0 9l-.14-.067a2 2 0 00-1.723 3.607l19 10 .142.067c.42.182.873.207 1.29.1.465.12.974.074 1.431-.167l19-10a2 2 0 00-1.862-3.54l-18.57 9.772L5.932 31.23zM10.353 15L24 7.556 37.647 15 24 22.444 10.353 15z" fill="currentColor"/></svg>