<svg width="24" height="24" viewBox="0 0 48 48" fill="currentColor"><path fill-rule="evenodd" clip-rule="evenodd" d="M23 26a1 1 0 011 1v2a1 1 0 01-1 1h-7c-3.73 0-6.86 2.55-7.75 6A8.226 8.226 0 008 38v2h15a1 1 0 011 1v2a1 1 0 01-1 1H6c-1.1 0-2-.895-2-2v-4c0-6.627 5.37-12 12-12h7zm11.5 0c.672 0 1.326.075 1.955.218l.971 2.23a1.2 1.2 0 001.231.712l2.386-.262A9.014 9.014 0 0143 32.32l-1.431 1.976a1.2 1.2 0 000 1.408L43 37.68a9.014 9.014 0 01-1.957 3.422l-2.386-.262a1.2 1.2 0 00-1.23.713l-.972 2.23a8.838 8.838 0 01-3.91 0l-.971-2.23a1.2 1.2 0 00-1.232-.713l-2.385.262A9.014 9.014 0 0126 37.68l1.431-1.976a1.2 1.2 0 000-1.408L26 32.32a9.014 9.014 0 011.957-3.422l2.386.262a1.2 1.2 0 001.23-.713l.972-2.23A8.838 8.838 0 0134.5 26zm0 5.727c-1.788 0-3.238 1.466-3.238 3.273 0 1.807 1.45 3.273 3.238 3.273s3.238-1.466 3.238-3.273c0-1.807-1.45-3.273-3.238-3.273zM21 3c5.52 0 10 4.477 10 10s-4.48 10-10 10-10-4.477-10-10S15.48 3 21 3zm0 4c-3.31 0-6 2.686-6 6s2.69 6 6 6 6-2.686 6-6-2.69-6-6-6z" fill="currentColor"/></svg>